<svg width="110" height="32" viewBox="0 0 110 32" fill="none" xmlns="http://www.w3.org/2000/svg">
<path d="M94.1459 0H15.8541C7.09812 0 0 7.16344 0 16C0 24.8366 7.09812 32 15.8541 32H94.1459C102.902 32 110 24.8366 110 16C110 7.16344 102.902 0 94.1459 0Z" fill="#007391"/>
<path d="M60.2891 10.174C60.255 9.87145 60.1143 9.63707 59.8672 9.47088C59.62 9.30256 59.3089 9.21839 58.9339 9.21839C58.6655 9.21839 58.4332 9.26101 58.2372 9.34624C58.0412 9.42933 57.8888 9.54439 57.7802 9.69141C57.6737 9.83629 57.6204 10.0014 57.6204 10.1868C57.6204 10.3423 57.6566 10.4766 57.729 10.5895C57.8036 10.7024 57.9006 10.7972 58.0199 10.8739C58.1413 10.9485 58.2713 11.0114 58.4098 11.0625C58.5483 11.1115 58.6815 11.152 58.8093 11.1839L59.4485 11.3501C59.6573 11.4013 59.8714 11.4705 60.0909 11.5579C60.3104 11.6452 60.5138 11.7603 60.7013 11.9031C60.8888 12.0458 61.0401 12.2227 61.1552 12.4336C61.2724 12.6445 61.331 12.897 61.331 13.1911C61.331 13.5618 61.2351 13.891 61.0433 14.1786C60.8537 14.4663 60.5778 14.6932 60.2156 14.8594C59.8555 15.0256 59.4197 15.1087 58.9084 15.1087C58.4183 15.1087 57.9943 15.0309 57.6364 14.8754C57.2784 14.7198 56.9982 14.4993 56.7958 14.2138C56.5934 13.9261 56.4815 13.5852 56.4602 13.1911H57.451C57.4702 13.4276 57.5469 13.6246 57.6811 13.7823C57.8175 13.9379 57.9911 14.054 58.2021 14.1307C58.4151 14.2053 58.6484 14.2425 58.902 14.2425C59.1811 14.2425 59.4293 14.1989 59.6467 14.1115C59.8661 14.022 60.0387 13.8984 60.1644 13.7408C60.2901 13.581 60.353 13.3945 60.353 13.1815C60.353 12.9876 60.2976 12.8288 60.1868 12.7053C60.0781 12.5817 59.93 12.4794 59.7425 12.3984C59.5572 12.3175 59.3473 12.2461 59.1129 12.1843L58.3395 11.9734C57.8153 11.8306 57.3999 11.6207 57.093 11.3438C56.7884 11.0668 56.636 10.7003 56.636 10.2443C56.636 9.86719 56.7383 9.538 56.9428 9.25675C57.1474 8.9755 57.4244 8.7571 57.7738 8.60156C58.1232 8.44389 58.5174 8.36506 58.9563 8.36506C59.3995 8.36506 59.7905 8.44283 60.1293 8.59837C60.4702 8.75391 60.7386 8.96804 60.9347 9.24077C61.1307 9.51136 61.233 9.82244 61.2415 10.174H60.2891ZM63.4987 8.45455V15H62.5111V8.45455H63.4987ZM70.2199 8.45455V15H69.3122L65.9852 10.1996H65.9244V15H64.9369V8.45455H65.8509L69.1812 13.2614H69.2419V8.45455H70.2199ZM57.7067 19.4545V26H56.7191V19.4545H57.7067ZM64.4279 19.4545V26H63.5202L60.1932 21.1996H60.1325V26H59.1449V19.4545H60.0589L63.3892 24.2614H63.4499V19.4545H64.4279ZM65.5457 20.3047V19.4545H70.6114V20.3047H68.5692V26H67.5848V20.3047H65.5457ZM71.7308 26V19.4545H75.8345V20.3047H72.7184V22.299H75.6204V23.146H72.7184V25.1499H75.8729V26H71.7308ZM77.1537 26V19.4545H79.4868C79.9939 19.4545 80.4147 19.5419 80.7492 19.7166C81.0858 19.8913 81.3373 20.1332 81.5035 20.4421C81.6697 20.7489 81.7528 21.1037 81.7528 21.5064C81.7528 21.907 81.6686 22.2596 81.5003 22.5643C81.3341 22.8668 81.0827 23.1023 80.746 23.2706C80.4115 23.4389 79.9907 23.5231 79.4836 23.5231H77.7162V22.6729H79.3941C79.7137 22.6729 79.9736 22.6271 80.1739 22.5355C80.3763 22.4439 80.5244 22.3107 80.6182 22.136C80.7119 21.9613 80.7588 21.7514 80.7588 21.5064C80.7588 21.2592 80.7108 21.0451 80.615 20.864C80.5212 20.6829 80.3731 20.5444 80.1707 20.4485C79.9704 20.3505 79.7073 20.3015 79.3813 20.3015H78.1412V26H77.1537ZM80.3849 23.0469L82.002 26H80.877L79.2918 23.0469H80.3849ZM82.9545 26V19.4545H87.0582V20.3047H83.942V22.299H86.844V23.146H83.942V25.1499H87.0965V26H82.9545ZM84.61 18.7994L85.3579 17.326H86.3646L85.3738 18.7994H84.61ZM91.9473 21.174C91.9132 20.8714 91.7725 20.6371 91.5254 20.4709C91.2782 20.3026 90.9672 20.2184 90.5922 20.2184C90.3237 20.2184 90.0914 20.261 89.8954 20.3462C89.6994 20.4293 89.5471 20.5444 89.4384 20.6914C89.3319 20.8363 89.2786 21.0014 89.2786 21.1868C89.2786 21.3423 89.3148 21.4766 89.3873 21.5895C89.4618 21.7024 89.5588 21.7972 89.6781 21.8739C89.7995 21.9485 89.9295 22.0114 90.068 22.0625C90.2065 22.1115 90.3397 22.152 90.4675 22.1839L91.1067 22.3501C91.3155 22.4013 91.5297 22.4705 91.7491 22.5579C91.9686 22.6452 92.1721 22.7603 92.3596 22.9031C92.5471 23.0458 92.6983 23.2227 92.8134 23.4336C92.9306 23.6445 92.9892 23.897 92.9892 24.1911C92.9892 24.5618 92.8933 24.891 92.7015 25.1786C92.5119 25.4663 92.236 25.6932 91.8738 25.8594C91.5137 26.0256 91.0779 26.1087 90.5666 26.1087C90.0765 26.1087 89.6525 26.0309 89.2946 25.8754C88.9366 25.7198 88.6564 25.4993 88.454 25.2138C88.2516 24.9261 88.1397 24.5852 88.1184 24.1911H89.1092C89.1284 24.4276 89.2051 24.6246 89.3393 24.7823C89.4757 24.9379 89.6493 25.054 89.8603 25.1307C90.0733 25.2053 90.3066 25.2425 90.5602 25.2425C90.8393 25.2425 91.0875 25.1989 91.3049 25.1115C91.5243 25.022 91.6969 24.8984 91.8226 24.7408C91.9483 24.581 92.0112 24.3945 92.0112 24.1815C92.0112 23.9876 91.9558 23.8288 91.845 23.7053C91.7363 23.5817 91.5882 23.4794 91.4007 23.3984C91.2154 23.3175 91.0055 23.2461 90.7711 23.1843L89.9977 22.9734C89.4735 22.8306 89.0581 22.6207 88.7512 22.3438C88.4466 22.0668 88.2942 21.7003 88.2942 21.2443C88.2942 20.8672 88.3965 20.538 88.601 20.2567C88.8056 19.9755 89.0826 19.7571 89.432 19.6016C89.7814 19.4439 90.1756 19.3651 90.6145 19.3651C91.0577 19.3651 91.4487 19.4428 91.7875 19.5984C92.1284 19.7539 92.3968 19.968 92.5929 20.2408C92.7889 20.5114 92.8912 20.8224 92.8997 21.174H91.9473Z" fill="white"/>
<path d="M39.7031 17.9355C39.7031 17.1152 39.7617 16.3047 39.8789 15.5039C40.0026 14.6966 40.2142 13.9382 40.5137 13.2285C40.8132 12.5124 41.2331 11.8809 41.7734 11.334C42.3138 10.7806 43.0007 10.3477 43.834 10.0352C44.6673 9.71615 45.6764 9.55664 46.8613 9.55664C47.1413 9.55664 47.4668 9.56966 47.8379 9.5957C48.2155 9.61523 48.528 9.65104 48.7754 9.70312V12.1152C48.515 12.0566 48.235 12.0111 47.9355 11.9785C47.6426 11.9395 47.3496 11.9199 47.0566 11.9199C45.8717 11.9199 44.9538 12.1087 44.3027 12.4863C43.6582 12.8639 43.2025 13.388 42.9355 14.0586C42.6751 14.7227 42.5221 15.4974 42.4766 16.3828H42.6035C42.7858 16.0638 43.0137 15.7806 43.2871 15.5332C43.5671 15.2858 43.9056 15.0905 44.3027 14.9473C44.6999 14.7975 45.1654 14.7227 45.6992 14.7227C46.5326 14.7227 47.2552 14.9017 47.8672 15.2598C48.4792 15.6113 48.9512 16.1224 49.2832 16.793C49.6152 17.4635 49.7812 18.2806 49.7812 19.2441C49.7812 20.2728 49.5827 21.1582 49.1855 21.9004C48.7884 22.6426 48.2253 23.2122 47.4961 23.6094C46.7734 24 45.9141 24.1953 44.918 24.1953C44.1888 24.1953 43.5085 24.0716 42.877 23.8242C42.2454 23.5703 41.6921 23.1862 41.2168 22.6719C40.7415 22.1576 40.3704 21.5098 40.1035 20.7285C39.8366 19.9408 39.7031 19.0098 39.7031 17.9355ZM44.8594 21.7832C45.4518 21.7832 45.9336 21.5814 46.3047 21.1777C46.6758 20.7741 46.8613 20.1426 46.8613 19.2832C46.8613 18.5866 46.6986 18.0397 46.373 17.6426C46.054 17.2389 45.569 17.0371 44.918 17.0371C44.4753 17.0371 44.0846 17.138 43.7461 17.3398C43.4141 17.5352 43.1569 17.7858 42.9746 18.0918C42.7923 18.3913 42.7012 18.7005 42.7012 19.0195C42.7012 19.3516 42.7467 19.6803 42.8379 20.0059C42.929 20.3314 43.0658 20.6276 43.248 20.8945C43.4303 21.1615 43.6549 21.3763 43.9219 21.5391C44.1953 21.7018 44.5078 21.7832 44.8594 21.7832Z" fill="white"/>
<path d="M39.7031 17.9355C39.7031 17.1152 39.7617 16.3047 39.8789 15.5039C40.0026 14.6966 40.2142 13.9382 40.5137 13.2285C40.8132 12.5124 41.2331 11.8809 41.7734 11.334C42.3138 10.7806 43.0007 10.3477 43.834 10.0352C44.6673 9.71615 45.6764 9.55664 46.8613 9.55664C47.1413 9.55664 47.4668 9.56966 47.8379 9.5957C48.2155 9.61523 48.528 9.65104 48.7754 9.70312V12.1152C48.515 12.0566 48.235 12.0111 47.9355 11.9785C47.6426 11.9395 47.3496 11.9199 47.0566 11.9199C45.8717 11.9199 44.9538 12.1087 44.3027 12.4863C43.6582 12.8639 43.2025 13.388 42.9355 14.0586C42.6751 14.7227 42.5221 15.4974 42.4766 16.3828H42.6035C42.7858 16.0638 43.0137 15.7806 43.2871 15.5332C43.5671 15.2858 43.9056 15.0905 44.3027 14.9473C44.6999 14.7975 45.1654 14.7227 45.6992 14.7227C46.5326 14.7227 47.2552 14.9017 47.8672 15.2598C48.4792 15.6113 48.9512 16.1224 49.2832 16.793C49.6152 17.4635 49.7812 18.2806 49.7812 19.2441C49.7812 20.2728 49.5827 21.1582 49.1855 21.9004C48.7884 22.6426 48.2253 23.2122 47.4961 23.6094C46.7734 24 45.9141 24.1953 44.918 24.1953C44.1888 24.1953 43.5085 24.0716 42.877 23.8242C42.2454 23.5703 41.6921 23.1862 41.2168 22.6719C40.7415 22.1576 40.3704 21.5098 40.1035 20.7285C39.8366 19.9408 39.7031 19.0098 39.7031 17.9355ZM44.8594 21.7832C45.4518 21.7832 45.9336 21.5814 46.3047 21.1777C46.6758 20.7741 46.8613 20.1426 46.8613 19.2832C46.8613 18.5866 46.6986 18.0397 46.373 17.6426C46.054 17.2389 45.569 17.0371 44.918 17.0371C44.4753 17.0371 44.0846 17.138 43.7461 17.3398C43.4141 17.5352 43.1569 17.7858 42.9746 18.0918C42.7923 18.3913 42.7012 18.7005 42.7012 19.0195C42.7012 19.3516 42.7467 19.6803 42.8379 20.0059C42.929 20.3314 43.0658 20.6276 43.248 20.8945C43.4303 21.1615 43.6549 21.3763 43.9219 21.5391C44.1953 21.7018 44.5078 21.7832 44.8594 21.7832Z" fill="white"/>
<path d="M39.7031 17.9355C39.7031 17.1152 39.7617 16.3047 39.8789 15.5039C40.0026 14.6966 40.2142 13.9382 40.5137 13.2285C40.8132 12.5124 41.2331 11.8809 41.7734 11.334C42.3138 10.7806 43.0007 10.3477 43.834 10.0352C44.6673 9.71615 45.6764 9.55664 46.8613 9.55664C47.1413 9.55664 47.4668 9.56966 47.8379 9.5957C48.2155 9.61523 48.528 9.65104 48.7754 9.70312V12.1152C48.515 12.0566 48.235 12.0111 47.9355 11.9785C47.6426 11.9395 47.3496 11.9199 47.0566 11.9199C45.8717 11.9199 44.9538 12.1087 44.3027 12.4863C43.6582 12.8639 43.2025 13.388 42.9355 14.0586C42.6751 14.7227 42.5221 15.4974 42.4766 16.3828H42.6035C42.7858 16.0638 43.0137 15.7806 43.2871 15.5332C43.5671 15.2858 43.9056 15.0905 44.3027 14.9473C44.6999 14.7975 45.1654 14.7227 45.6992 14.7227C46.5326 14.7227 47.2552 14.9017 47.8672 15.2598C48.4792 15.6113 48.9512 16.1224 49.2832 16.793C49.6152 17.4635 49.7812 18.2806 49.7812 19.2441C49.7812 20.2728 49.5827 21.1582 49.1855 21.9004C48.7884 22.6426 48.2253 23.2122 47.4961 23.6094C46.7734 24 45.9141 24.1953 44.918 24.1953C44.1888 24.1953 43.5085 24.0716 42.877 23.8242C42.2454 23.5703 41.6921 23.1862 41.2168 22.6719C40.7415 22.1576 40.3704 21.5098 40.1035 20.7285C39.8366 19.9408 39.7031 19.0098 39.7031 17.9355ZM44.8594 21.7832C45.4518 21.7832 45.9336 21.5814 46.3047 21.1777C46.6758 20.7741 46.8613 20.1426 46.8613 19.2832C46.8613 18.5866 46.6986 18.0397 46.373 17.6426C46.054 17.2389 45.569 17.0371 44.918 17.0371C44.4753 17.0371 44.0846 17.138 43.7461 17.3398C43.4141 17.5352 43.1569 17.7858 42.9746 18.0918C42.7923 18.3913 42.7012 18.7005 42.7012 19.0195C42.7012 19.3516 42.7467 19.6803 42.8379 20.0059C42.929 20.3314 43.0658 20.6276 43.248 20.8945C43.4303 21.1615 43.6549 21.3763 43.9219 21.5391C44.1953 21.7018 44.5078 21.7832 44.8594 21.7832Z" fill="white"/>
<path d="M17.2496 9.10127C17.2232 9.10127 17.1968 9.07477 17.1836 9.06152C17.1836 9.06152 17.144 9.06152 17.1176 9.06152L13.6592 10.7575C13.6328 10.7575 13.6328 10.784 13.6592 10.784H20.6552C20.6816 10.784 20.6816 10.784 20.6552 10.7575L17.2496 9.08802V9.10127Z" fill="white"/>
<path d="M17.1572 4C10.4516 4 5 9.47225 5 16.2032C5 22.9342 10.4516 28.4065 17.1572 28.4065C23.8628 28.4065 29.3144 22.9342 29.3144 16.2032C29.3144 9.47225 23.8628 4 17.1572 4ZM24.008 23.292C24.008 23.292 23.9948 23.3317 23.9684 23.3317H10.346C10.346 23.3317 10.3064 23.3185 10.3064 23.292V21.914C10.3064 21.914 10.3196 21.8742 10.346 21.8742H23.9816C23.9816 21.8742 24.0212 21.8875 24.0212 21.914V23.292H24.008ZM14.8208 19.688V12.7582H16.3916V19.688H17.9228V12.7582H19.4804V19.688H21.038V12.7582H22.5956V19.688H23.282V21.0925C23.282 21.119 23.2688 21.1322 23.2424 21.1322H11.0324C11.0324 21.1322 10.9928 21.119 10.9928 21.0925V19.688H11.6792V12.7582H13.2368V19.688H14.7944H14.8208ZM24.4568 11.3007L24.0212 12.056C24.0212 12.0825 23.9684 12.0957 23.942 12.0957H10.3592C10.3328 12.0957 10.2932 12.0692 10.28 12.056L9.8444 11.3007C9.8444 11.2743 9.8444 11.2477 9.8708 11.2345L17.1044 7.3655C17.1308 7.3655 17.1704 7.3655 17.1968 7.3655L24.4436 11.2345C24.47 11.2345 24.47 11.2743 24.47 11.3007H24.4568Z" fill="white"/>
</svg>
