<svg width="110" height="32" viewBox="0 0 110 32" fill="none" xmlns="http://www.w3.org/2000/svg">
<g clip-path="url(#clip0_570_2953)">
<path d="M94.1583 0H15.8417C7.09257 0 0 7.16344 0 16C0 24.8366 7.09257 32 15.8417 32H94.1583C102.907 32 110 24.8366 110 16C110 7.16344 102.907 0 94.1583 0Z" fill="#478438"/>
</g>
<path d="M47.291 13.992C47.129 14.166 46.958 14.322 46.778 14.46C46.604 14.592 46.415 14.709 46.211 14.811C46.007 14.907 45.782 14.979 45.536 15.027C45.296 15.081 45.029 15.108 44.735 15.108C44.273 15.108 43.847 15.024 43.457 14.856C43.067 14.688 42.728 14.46 42.44 14.172C42.158 13.878 41.936 13.533 41.774 13.137C41.612 12.741 41.531 12.315 41.531 11.859C41.531 11.409 41.609 10.986 41.765 10.59C41.927 10.194 42.152 9.849 42.44 9.555C42.728 9.255 43.07 9.021 43.466 8.853C43.862 8.679 44.3 8.592 44.78 8.592C45.068 8.592 45.329 8.616 45.563 8.664C45.803 8.712 46.022 8.781 46.22 8.871C46.418 8.955 46.601 9.057 46.769 9.177C46.937 9.297 47.096 9.429 47.246 9.573L46.535 10.392C46.283 10.158 46.016 9.969 45.734 9.825C45.452 9.681 45.131 9.609 44.771 9.609C44.471 9.609 44.192 9.669 43.934 9.789C43.682 9.903 43.463 10.062 43.277 10.266C43.091 10.464 42.947 10.698 42.845 10.968C42.743 11.238 42.692 11.529 42.692 11.841C42.692 12.153 42.743 12.447 42.845 12.723C42.947 12.993 43.091 13.23 43.277 13.434C43.463 13.638 43.682 13.8 43.934 13.92C44.192 14.034 44.471 14.091 44.771 14.091C45.155 14.091 45.485 14.019 45.761 13.875C46.037 13.725 46.31 13.524 46.58 13.272L47.291 13.992ZM53.7465 8.7V12.273C53.7465 12.741 53.6805 13.152 53.5485 13.506C53.4225 13.86 53.2425 14.157 53.0085 14.397C52.7745 14.631 52.4895 14.808 52.1535 14.928C51.8235 15.042 51.4515 15.099 51.0375 15.099C50.6295 15.099 50.2605 15.042 49.9305 14.928C49.6005 14.808 49.3185 14.631 49.0845 14.397C48.8505 14.163 48.6705 13.875 48.5445 13.533C48.4185 13.185 48.3555 12.783 48.3555 12.327V8.7H49.4625V12.282C49.4625 12.87 49.6035 13.317 49.8855 13.623C50.1675 13.929 50.5575 14.082 51.0555 14.082C51.5475 14.082 51.9345 13.935 52.2165 13.641C52.4985 13.347 52.6395 12.909 52.6395 12.327V8.7H53.7465ZM61.5751 11.841C61.5751 12.285 61.4941 12.705 61.3321 13.101C61.1701 13.497 60.9421 13.845 60.6481 14.145C60.3541 14.439 60.0061 14.673 59.6041 14.847C59.2021 15.021 58.7581 15.108 58.2721 15.108C57.7861 15.108 57.3421 15.024 56.9401 14.856C56.5381 14.682 56.1931 14.448 55.9051 14.154C55.6171 13.86 55.3921 13.515 55.2301 13.119C55.0681 12.723 54.9871 12.303 54.9871 11.859C54.9871 11.415 55.0681 10.995 55.2301 10.599C55.3921 10.203 55.6201 9.858 55.9141 9.564C56.2081 9.264 56.5561 9.027 56.9581 8.853C57.3601 8.679 57.8041 8.592 58.2901 8.592C58.7761 8.592 59.2201 8.679 59.6221 8.853C60.0241 9.021 60.3691 9.252 60.6571 9.546C60.9451 9.84 61.1701 10.185 61.3321 10.581C61.4941 10.977 61.5751 11.397 61.5751 11.841ZM60.4141 11.859C60.4141 11.553 60.3601 11.265 60.2521 10.995C60.1501 10.719 60.0031 10.479 59.8111 10.275C59.6251 10.071 59.4001 9.909 59.1361 9.789C58.8721 9.669 58.5841 9.609 58.2721 9.609C57.9601 9.609 57.6721 9.669 57.4081 9.789C57.1501 9.903 56.9281 10.062 56.7421 10.266C56.5561 10.464 56.4091 10.701 56.3011 10.977C56.1991 11.247 56.1481 11.535 56.1481 11.841C56.1481 12.147 56.1991 12.438 56.3011 12.714C56.4091 12.984 56.5561 13.221 56.7421 13.425C56.9341 13.629 57.1621 13.791 57.4261 13.911C57.6901 14.031 57.9781 14.091 58.2901 14.091C58.6021 14.091 58.8871 14.034 59.1451 13.92C59.4091 13.8 59.6341 13.641 59.8201 13.443C60.0061 13.239 60.1501 13.002 60.2521 12.732C60.3601 12.456 60.4141 12.165 60.4141 11.859ZM65.2338 9.726V15H64.1178V9.726H62.1198V8.7H67.2318V9.726H65.2338ZM70.8551 8.655L73.6271 15H72.4571L71.8181 13.479H68.8391L68.1911 15H67.0571L69.8291 8.655H70.8551ZM71.4131 12.498L70.3241 9.978L69.2441 12.498H71.4131ZM75.5468 10.347C75.5468 10.473 75.5678 10.581 75.6098 10.671C75.6518 10.761 75.7268 10.845 75.8348 10.923C75.9488 11.001 76.1018 11.073 76.2938 11.139C76.4918 11.205 76.7408 11.274 77.0408 11.346C77.3708 11.43 77.6618 11.523 77.9138 11.625C78.1718 11.727 78.3848 11.853 78.5528 12.003C78.7208 12.147 78.8468 12.318 78.9308 12.516C79.0208 12.708 79.0658 12.936 79.0658 13.2C79.0658 13.5 79.0088 13.767 78.8948 14.001C78.7868 14.235 78.6338 14.433 78.4358 14.595C78.2378 14.757 78.0008 14.88 77.7248 14.964C77.4488 15.048 77.1458 15.09 76.8158 15.09C76.3298 15.09 75.8648 15.009 75.4208 14.847C74.9768 14.679 74.5658 14.424 74.1878 14.082L74.8538 13.29C75.1598 13.554 75.4688 13.758 75.7808 13.902C76.0928 14.04 76.4468 14.109 76.8428 14.109C77.1848 14.109 77.4548 14.037 77.6528 13.893C77.8568 13.749 77.9588 13.554 77.9588 13.308C77.9588 13.194 77.9378 13.092 77.8958 13.002C77.8598 12.912 77.7878 12.831 77.6798 12.759C77.5778 12.681 77.4338 12.609 77.2478 12.543C77.0678 12.477 76.8308 12.408 76.5368 12.336C76.2008 12.258 75.9008 12.171 75.6368 12.075C75.3788 11.979 75.1598 11.859 74.9798 11.715C74.8058 11.571 74.6708 11.397 74.5748 11.193C74.4848 10.989 74.4398 10.74 74.4398 10.446C74.4398 10.17 74.4938 9.921 74.6018 9.699C74.7098 9.471 74.8568 9.276 75.0428 9.114C75.2348 8.952 75.4628 8.829 75.7268 8.745C75.9908 8.655 76.2788 8.61 76.5908 8.61C77.0528 8.61 77.4668 8.679 77.8328 8.817C78.2048 8.949 78.5528 9.144 78.8768 9.402L78.2828 10.239C77.9948 10.029 77.7098 9.87 77.4278 9.762C77.1458 9.648 76.8608 9.591 76.5728 9.591C76.2488 9.591 75.9968 9.666 75.8168 9.816C75.6368 9.96 75.5468 10.137 75.5468 10.347ZM42.746 19.347C42.746 19.473 42.767 19.581 42.809 19.671C42.851 19.761 42.926 19.845 43.034 19.923C43.148 20.001 43.301 20.073 43.493 20.139C43.691 20.205 43.94 20.274 44.24 20.346C44.57 20.43 44.861 20.523 45.113 20.625C45.371 20.727 45.584 20.853 45.752 21.003C45.92 21.147 46.046 21.318 46.13 21.516C46.22 21.708 46.265 21.936 46.265 22.2C46.265 22.5 46.208 22.767 46.094 23.001C45.986 23.235 45.833 23.433 45.635 23.595C45.437 23.757 45.2 23.88 44.924 23.964C44.648 24.048 44.345 24.09 44.015 24.09C43.529 24.09 43.064 24.009 42.62 23.847C42.176 23.679 41.765 23.424 41.387 23.082L42.053 22.29C42.359 22.554 42.668 22.758 42.98 22.902C43.292 23.04 43.646 23.109 44.042 23.109C44.384 23.109 44.654 23.037 44.852 22.893C45.056 22.749 45.158 22.554 45.158 22.308C45.158 22.194 45.137 22.092 45.095 22.002C45.059 21.912 44.987 21.831 44.879 21.759C44.777 21.681 44.633 21.609 44.447 21.543C44.267 21.477 44.03 21.408 43.736 21.336C43.4 21.258 43.1 21.171 42.836 21.075C42.578 20.979 42.359 20.859 42.179 20.715C42.005 20.571 41.87 20.397 41.774 20.193C41.684 19.989 41.639 19.74 41.639 19.446C41.639 19.17 41.693 18.921 41.801 18.699C41.909 18.471 42.056 18.276 42.242 18.114C42.434 17.952 42.662 17.829 42.926 17.745C43.19 17.655 43.478 17.61 43.79 17.61C44.252 17.61 44.666 17.679 45.032 17.817C45.404 17.949 45.752 18.144 46.076 18.402L45.482 19.239C45.194 19.029 44.909 18.87 44.627 18.762C44.345 18.648 44.06 18.591 43.772 18.591C43.448 18.591 43.196 18.666 43.016 18.816C42.836 18.96 42.746 19.137 42.746 19.347ZM47.6298 17.7H48.7368V24H47.6298V17.7ZM54.8243 22.056V17.7H55.9133V24H54.9863L51.5123 19.518V24H50.4233V17.7H51.4493L54.8243 22.056ZM60.2949 17.7H61.4019V24H60.2949V17.7ZM67.4893 22.056V17.7H68.5783V24H67.6513L64.1773 19.518V24H63.0883V17.7H64.1143L67.4893 22.056ZM72.8627 18.726V24H71.7467V18.726H69.7487V17.7H74.8607V18.726H72.8627ZM80.7056 17.7V18.69H77.1416V20.328H80.3006V21.318H77.1416V23.01H80.7506V24H76.0346V17.7H80.7056ZM87.4099 24H86.1049L84.5569 21.804H83.1709V24H82.0639V17.7H84.8719C85.2319 17.7 85.5559 17.748 85.8439 17.844C86.1379 17.934 86.3839 18.066 86.5819 18.24C86.7859 18.408 86.9419 18.618 87.0499 18.87C87.1579 19.116 87.2119 19.392 87.2119 19.698C87.2119 19.962 87.1729 20.199 87.0949 20.409C87.0229 20.613 86.9209 20.796 86.7889 20.958C86.6569 21.114 86.4979 21.249 86.3119 21.363C86.1319 21.471 85.9309 21.555 85.7089 21.615L87.4099 24ZM86.0869 19.761C86.0869 19.413 85.9729 19.152 85.7449 18.978C85.5169 18.798 85.1959 18.708 84.7819 18.708H83.1709V20.823H84.7909C85.1869 20.823 85.5019 20.727 85.7359 20.535C85.9699 20.343 86.0869 20.085 86.0869 19.761ZM93.2388 17.7V18.69H89.6748V20.328H92.8338V21.318H89.6748V23.01H93.2838V24H88.5678V17.7H93.2388ZM91.0968 17.178H90.2508L91.2048 15.702L92.1948 16.143L91.0968 17.178ZM95.5331 19.347C95.5331 19.473 95.5541 19.581 95.5961 19.671C95.6381 19.761 95.7131 19.845 95.8211 19.923C95.9351 20.001 96.0881 20.073 96.2801 20.139C96.4781 20.205 96.7271 20.274 97.0271 20.346C97.3571 20.43 97.6481 20.523 97.9001 20.625C98.1581 20.727 98.3711 20.853 98.5391 21.003C98.7071 21.147 98.8331 21.318 98.9171 21.516C99.0071 21.708 99.0521 21.936 99.0521 22.2C99.0521 22.5 98.9951 22.767 98.8811 23.001C98.7731 23.235 98.6201 23.433 98.4221 23.595C98.2241 23.757 97.9871 23.88 97.7111 23.964C97.4351 24.048 97.1321 24.09 96.8021 24.09C96.3161 24.09 95.8511 24.009 95.4071 23.847C94.9631 23.679 94.5521 23.424 94.1741 23.082L94.8401 22.29C95.1461 22.554 95.4551 22.758 95.7671 22.902C96.0791 23.04 96.4331 23.109 96.8291 23.109C97.1711 23.109 97.4411 23.037 97.6391 22.893C97.8431 22.749 97.9451 22.554 97.9451 22.308C97.9451 22.194 97.9241 22.092 97.8821 22.002C97.8461 21.912 97.7741 21.831 97.6661 21.759C97.5641 21.681 97.4201 21.609 97.2341 21.543C97.0541 21.477 96.8171 21.408 96.5231 21.336C96.1871 21.258 95.8871 21.171 95.6231 21.075C95.3651 20.979 95.1461 20.859 94.9661 20.715C94.7921 20.571 94.6571 20.397 94.5611 20.193C94.4711 19.989 94.4261 19.74 94.4261 19.446C94.4261 19.17 94.4801 18.921 94.5881 18.699C94.6961 18.471 94.8431 18.276 95.0291 18.114C95.2211 17.952 95.4491 17.829 95.7131 17.745C95.9771 17.655 96.2651 17.61 96.5771 17.61C97.0391 17.61 97.4531 17.679 97.8191 17.817C98.1911 17.949 98.5391 18.144 98.8631 18.402L98.2691 19.239C97.9811 19.029 97.6961 18.87 97.4141 18.762C97.1321 18.648 96.8471 18.591 96.5591 18.591C96.2351 18.591 95.9831 18.666 95.8031 18.816C95.6231 18.96 95.5331 19.137 95.5331 19.347Z" fill="white"/>
<path d="M21.2617 24H18.2441V15.7383C18.2441 15.5104 18.2474 15.2305 18.2539 14.8984C18.2604 14.5599 18.2702 14.2148 18.2832 13.8633C18.2962 13.5052 18.3092 13.1829 18.3223 12.8965C18.2507 12.9811 18.1042 13.1276 17.8828 13.3359C17.668 13.5378 17.4661 13.7201 17.2773 13.8828L15.6367 15.2012L14.1816 13.3848L18.7812 9.72266H21.2617V24ZM35.2266 24H25.2461V21.9004L28.8301 18.2773C29.5527 17.5352 30.1322 16.9167 30.5684 16.4219C31.0111 15.9206 31.3301 15.4648 31.5254 15.0547C31.7272 14.6445 31.8281 14.2051 31.8281 13.7363C31.8281 13.1699 31.6686 12.7467 31.3496 12.4668C31.0371 12.1803 30.6172 12.0371 30.0898 12.0371C29.5365 12.0371 28.9993 12.1641 28.4785 12.418C27.9577 12.6719 27.4141 13.0332 26.8477 13.502L25.207 11.5586C25.6172 11.207 26.0501 10.875 26.5059 10.5625C26.9681 10.25 27.502 9.99935 28.1074 9.81055C28.7194 9.61523 29.4518 9.51758 30.3047 9.51758C31.2422 9.51758 32.0462 9.68685 32.7168 10.0254C33.3939 10.3639 33.9147 10.8262 34.2793 11.4121C34.6439 11.9915 34.8262 12.6491 34.8262 13.3848C34.8262 14.1725 34.6699 14.8919 34.3574 15.543C34.0449 16.194 33.5892 16.8385 32.9902 17.4766C32.3978 18.1146 31.6816 18.821 30.8418 19.5957L29.0059 21.3242V21.4609H35.2266V24Z" fill="white"/>
<defs>
<clipPath id="clip0_570_2953">
<rect width="110" height="32" fill="white"/>
</clipPath>
</defs>
</svg>
