<svg width="110" height="32" viewBox="0 0 110 32" fill="none" xmlns="http://www.w3.org/2000/svg">
<path d="M94.1459 0H15.8541C7.09812 0 0 7.16344 0 16C0 24.8366 7.09812 32 15.8541 32H94.1459C102.902 32 110 24.8366 110 16C110 7.16344 102.902 0 94.1459 0Z" fill="#007391"/>
<path d="M68.2891 10.174C68.255 9.87145 68.1143 9.63707 67.8672 9.47088C67.62 9.30256 67.3089 9.21839 66.9339 9.21839C66.6655 9.21839 66.4332 9.26101 66.2372 9.34624C66.0412 9.42933 65.8888 9.54439 65.7802 9.69141C65.6737 9.83629 65.6204 10.0014 65.6204 10.1868C65.6204 10.3423 65.6566 10.4766 65.729 10.5895C65.8036 10.7024 65.9006 10.7972 66.0199 10.8739C66.1413 10.9485 66.2713 11.0114 66.4098 11.0625C66.5483 11.1115 66.6815 11.152 66.8093 11.1839L67.4485 11.3501C67.6573 11.4013 67.8714 11.4705 68.0909 11.5579C68.3104 11.6452 68.5138 11.7603 68.7013 11.9031C68.8888 12.0458 69.0401 12.2227 69.1552 12.4336C69.2724 12.6445 69.331 12.897 69.331 13.1911C69.331 13.5618 69.2351 13.891 69.0433 14.1786C68.8537 14.4663 68.5778 14.6932 68.2156 14.8594C67.8555 15.0256 67.4197 15.1087 66.9084 15.1087C66.4183 15.1087 65.9943 15.0309 65.6364 14.8754C65.2784 14.7198 64.9982 14.4993 64.7958 14.2138C64.5934 13.9261 64.4815 13.5852 64.4602 13.1911H65.451C65.4702 13.4276 65.5469 13.6246 65.6811 13.7823C65.8175 13.9379 65.9911 14.054 66.2021 14.1307C66.4151 14.2053 66.6484 14.2425 66.902 14.2425C67.1811 14.2425 67.4293 14.1989 67.6467 14.1115C67.8661 14.022 68.0387 13.8984 68.1644 13.7408C68.2901 13.581 68.353 13.3945 68.353 13.1815C68.353 12.9876 68.2976 12.8288 68.1868 12.7053C68.0781 12.5817 67.93 12.4794 67.7425 12.3984C67.5572 12.3175 67.3473 12.2461 67.1129 12.1843L66.3395 11.9734C65.8153 11.8306 65.3999 11.6207 65.093 11.3438C64.7884 11.0668 64.636 10.7003 64.636 10.2443C64.636 9.86719 64.7383 9.538 64.9428 9.25675C65.1474 8.9755 65.4244 8.7571 65.7738 8.60156C66.1232 8.44389 66.5174 8.36506 66.9563 8.36506C67.3995 8.36506 67.7905 8.44283 68.1293 8.59837C68.4702 8.75391 68.7386 8.96804 68.9347 9.24077C69.1307 9.51136 69.233 9.82244 69.2415 10.174H68.2891ZM71.4987 8.45455V15H70.5111V8.45455H71.4987ZM78.2199 8.45455V15H77.3122L73.9852 10.1996H73.9244V15H72.9369V8.45455H73.8509L77.1812 13.2614H77.2419V8.45455H78.2199ZM65.7067 19.4545V26H64.7191V19.4545H65.7067ZM72.4279 19.4545V26H71.5202L68.1932 21.1996H68.1325V26H67.1449V19.4545H68.0589L71.3892 24.2614H71.4499V19.4545H72.4279ZM73.5457 20.3047V19.4545H78.6114V20.3047H76.5692V26H75.5848V20.3047H73.5457ZM79.7308 26V19.4545H83.8345V20.3047H80.7184V22.299H83.6204V23.146H80.7184V25.1499H83.8729V26H79.7308ZM85.1537 26V19.4545H87.4868C87.9939 19.4545 88.4147 19.5419 88.7492 19.7166C89.0858 19.8913 89.3373 20.1332 89.5035 20.4421C89.6697 20.7489 89.7528 21.1037 89.7528 21.5064C89.7528 21.907 89.6686 22.2596 89.5003 22.5643C89.3341 22.8668 89.0827 23.1023 88.746 23.2706C88.4115 23.4389 87.9907 23.5231 87.4836 23.5231H85.7162V22.6729H87.3941C87.7137 22.6729 87.9736 22.6271 88.1739 22.5355C88.3763 22.4439 88.5244 22.3107 88.6182 22.136C88.7119 21.9613 88.7588 21.7514 88.7588 21.5064C88.7588 21.2592 88.7108 21.0451 88.615 20.864C88.5212 20.6829 88.3731 20.5444 88.1707 20.4485C87.9704 20.3505 87.7073 20.3015 87.3813 20.3015H86.1412V26H85.1537ZM88.3849 23.0469L90.002 26H88.877L87.2918 23.0469H88.3849ZM90.9545 26V19.4545H95.0582V20.3047H91.942V22.299H94.844V23.146H91.942V25.1499H95.0965V26H90.9545ZM92.61 18.7994L93.3579 17.326H94.3646L93.3738 18.7994H92.61ZM99.9473 21.174C99.9132 20.8714 99.7725 20.6371 99.5254 20.4709C99.2782 20.3026 98.9672 20.2184 98.5922 20.2184C98.3237 20.2184 98.0914 20.261 97.8954 20.3462C97.6994 20.4293 97.5471 20.5444 97.4384 20.6914C97.3319 20.8363 97.2786 21.0014 97.2786 21.1868C97.2786 21.3423 97.3148 21.4766 97.3873 21.5895C97.4618 21.7024 97.5588 21.7972 97.6781 21.8739C97.7995 21.9485 97.9295 22.0114 98.068 22.0625C98.2065 22.1115 98.3397 22.152 98.4675 22.1839L99.1067 22.3501C99.3155 22.4013 99.5297 22.4705 99.7491 22.5579C99.9686 22.6452 100.172 22.7603 100.36 22.9031C100.547 23.0458 100.698 23.2227 100.813 23.4336C100.931 23.6445 100.989 23.897 100.989 24.1911C100.989 24.5618 100.893 24.891 100.702 25.1786C100.512 25.4663 100.236 25.6932 99.8738 25.8594C99.5137 26.0256 99.0779 26.1087 98.5666 26.1087C98.0765 26.1087 97.6525 26.0309 97.2946 25.8754C96.9366 25.7198 96.6564 25.4993 96.454 25.2138C96.2516 24.9261 96.1397 24.5852 96.1184 24.1911H97.1092C97.1284 24.4276 97.2051 24.6246 97.3393 24.7823C97.4757 24.9379 97.6493 25.054 97.8603 25.1307C98.0733 25.2053 98.3066 25.2425 98.5602 25.2425C98.8393 25.2425 99.0875 25.1989 99.3049 25.1115C99.5243 25.022 99.6969 24.8984 99.8226 24.7408C99.9483 24.581 100.011 24.3945 100.011 24.1815C100.011 23.9876 99.9558 23.8288 99.845 23.7053C99.7363 23.5817 99.5882 23.4794 99.4007 23.3984C99.2154 23.3175 99.0055 23.2461 98.7711 23.1843L97.9977 22.9734C97.4735 22.8306 97.0581 22.6207 96.7512 22.3438C96.4466 22.0668 96.2942 21.7003 96.2942 21.2443C96.2942 20.8672 96.3965 20.538 96.601 20.2567C96.8056 19.9755 97.0826 19.7571 97.432 19.6016C97.7814 19.4439 98.1756 19.3651 98.6145 19.3651C99.0577 19.3651 99.4487 19.4428 99.7875 19.5984C100.128 19.7539 100.397 19.968 100.593 20.2408C100.789 20.5114 100.891 20.8224 100.9 21.174H99.9473Z" fill="white"/>
<path d="M44.2617 24H41.2441V15.7383L41.2734 14.3809L41.3223 12.8965C40.821 13.3978 40.4727 13.7266 40.2773 13.8828L38.6367 15.2012L37.1816 13.3848L41.7812 9.72266H44.2617V24ZM53.1484 9.53711C54.5156 9.53711 55.6159 9.84961 56.4492 10.4746C57.2891 11.0931 57.709 11.9297 57.709 12.9844C57.709 13.7135 57.5072 14.3646 57.1035 14.9375C56.6999 15.5039 56.0488 16.0117 55.1504 16.4609C56.2181 17.0339 56.9831 17.6328 57.4453 18.2578C57.9141 18.8763 58.1484 19.5566 58.1484 20.2988C58.1484 21.4707 57.6895 22.4147 56.7715 23.1309C55.8535 23.8405 54.6458 24.1953 53.1484 24.1953C51.5859 24.1953 50.3587 23.8633 49.4668 23.1992C48.5749 22.5352 48.1289 21.5944 48.1289 20.377C48.1289 19.5632 48.3438 18.8405 48.7734 18.209C49.2096 17.5775 49.9062 17.0208 50.8633 16.5391C50.0495 16.0247 49.4635 15.4746 49.1055 14.8887C48.7474 14.3027 48.5684 13.6615 48.5684 12.9648C48.5684 11.9427 48.9915 11.1159 49.8379 10.4844C50.6842 9.85286 51.7878 9.53711 53.1484 9.53711ZM50.9219 20.2012C50.9219 20.7611 51.1172 21.1973 51.5078 21.5098C51.8984 21.8223 52.4323 21.9785 53.1094 21.9785C53.8581 21.9785 54.418 21.819 54.7891 21.5C55.1602 21.1745 55.3457 20.748 55.3457 20.2207C55.3457 19.7845 55.1602 19.3776 54.7891 19C54.4245 18.6159 53.8288 18.209 53.002 17.7793C51.6152 18.4173 50.9219 19.2246 50.9219 20.2012ZM53.1289 11.7441C52.6146 11.7441 52.1979 11.8776 51.8789 12.1445C51.5664 12.4049 51.4102 12.7565 51.4102 13.1992C51.4102 13.5898 51.5339 13.9414 51.7812 14.2539C52.0352 14.5599 52.4909 14.8757 53.1484 15.2012C53.7865 14.9017 54.2324 14.5957 54.4863 14.2832C54.7402 13.9707 54.8672 13.6094 54.8672 13.1992C54.8672 12.75 54.7044 12.3952 54.3789 12.1348C54.0534 11.8743 53.6367 11.7441 53.1289 11.7441Z" fill="white"/>
<path d="M17.2496 9.10127C17.2232 9.10127 17.1968 9.07477 17.1836 9.06152C17.1836 9.06152 17.144 9.06152 17.1176 9.06152L13.6592 10.7575C13.6328 10.7575 13.6328 10.784 13.6592 10.784H20.6552C20.6816 10.784 20.6816 10.784 20.6552 10.7575L17.2496 9.08802V9.10127Z" fill="white"/>
<path d="M17.1572 4C10.4516 4 5 9.47225 5 16.2032C5 22.9342 10.4516 28.4065 17.1572 28.4065C23.8628 28.4065 29.3144 22.9342 29.3144 16.2032C29.3144 9.47225 23.8628 4 17.1572 4ZM24.008 23.292C24.008 23.292 23.9948 23.3317 23.9684 23.3317H10.346C10.346 23.3317 10.3064 23.3185 10.3064 23.292V21.914C10.3064 21.914 10.3196 21.8742 10.346 21.8742H23.9816C23.9816 21.8742 24.0212 21.8875 24.0212 21.914V23.292H24.008ZM14.8208 19.688V12.7582H16.3916V19.688H17.9228V12.7582H19.4804V19.688H21.038V12.7582H22.5956V19.688H23.282V21.0925C23.282 21.119 23.2688 21.1322 23.2424 21.1322H11.0324C11.0324 21.1322 10.9928 21.119 10.9928 21.0925V19.688H11.6792V12.7582H13.2368V19.688H14.7944H14.8208ZM24.4568 11.3007L24.0212 12.056C24.0212 12.0825 23.9684 12.0957 23.942 12.0957H10.3592C10.3328 12.0957 10.2932 12.0692 10.28 12.056L9.8444 11.3007C9.8444 11.2743 9.8444 11.2477 9.8708 11.2345L17.1044 7.3655C17.1308 7.3655 17.1704 7.3655 17.1968 7.3655L24.4436 11.2345C24.47 11.2345 24.47 11.2743 24.47 11.3007H24.4568Z" fill="white"/>
</svg>
