<svg width="110" height="32" viewBox="0 0 110 32" fill="none" xmlns="http://www.w3.org/2000/svg">
<path d="M94.1459 0H15.8541C7.09812 0 0 7.16344 0 16C0 24.8366 7.09812 32 15.8541 32H94.1459C102.902 32 110 24.8366 110 16C110 7.16344 102.902 0 94.1459 0Z" fill="#007391"/>
<path d="M61.2891 10.174C61.255 9.87145 61.1143 9.63707 60.8672 9.47088C60.62 9.30256 60.3089 9.21839 59.9339 9.21839C59.6655 9.21839 59.4332 9.26101 59.2372 9.34624C59.0412 9.42933 58.8888 9.54439 58.7802 9.69141C58.6737 9.83629 58.6204 10.0014 58.6204 10.1868C58.6204 10.3423 58.6566 10.4766 58.729 10.5895C58.8036 10.7024 58.9006 10.7972 59.0199 10.8739C59.1413 10.9485 59.2713 11.0114 59.4098 11.0625C59.5483 11.1115 59.6815 11.152 59.8093 11.1839L60.4485 11.3501C60.6573 11.4013 60.8714 11.4705 61.0909 11.5579C61.3104 11.6452 61.5138 11.7603 61.7013 11.9031C61.8888 12.0458 62.0401 12.2227 62.1552 12.4336C62.2724 12.6445 62.331 12.897 62.331 13.1911C62.331 13.5618 62.2351 13.891 62.0433 14.1786C61.8537 14.4663 61.5778 14.6932 61.2156 14.8594C60.8555 15.0256 60.4197 15.1087 59.9084 15.1087C59.4183 15.1087 58.9943 15.0309 58.6364 14.8754C58.2784 14.7198 57.9982 14.4993 57.7958 14.2138C57.5934 13.9261 57.4815 13.5852 57.4602 13.1911H58.451C58.4702 13.4276 58.5469 13.6246 58.6811 13.7823C58.8175 13.9379 58.9911 14.054 59.2021 14.1307C59.4151 14.2053 59.6484 14.2425 59.902 14.2425C60.1811 14.2425 60.4293 14.1989 60.6467 14.1115C60.8661 14.022 61.0387 13.8984 61.1644 13.7408C61.2901 13.581 61.353 13.3945 61.353 13.1815C61.353 12.9876 61.2976 12.8288 61.1868 12.7053C61.0781 12.5817 60.93 12.4794 60.7425 12.3984C60.5572 12.3175 60.3473 12.2461 60.1129 12.1843L59.3395 11.9734C58.8153 11.8306 58.3999 11.6207 58.093 11.3438C57.7884 11.0668 57.636 10.7003 57.636 10.2443C57.636 9.86719 57.7383 9.538 57.9428 9.25675C58.1474 8.9755 58.4244 8.7571 58.7738 8.60156C59.1232 8.44389 59.5174 8.36506 59.9563 8.36506C60.3995 8.36506 60.7905 8.44283 61.1293 8.59837C61.4702 8.75391 61.7386 8.96804 61.9347 9.24077C62.1307 9.51136 62.233 9.82244 62.2415 10.174H61.2891ZM64.4987 8.45455V15H63.5111V8.45455H64.4987ZM71.2199 8.45455V15H70.3122L66.9852 10.1996H66.9244V15H65.9369V8.45455H66.8509L70.1812 13.2614H70.2419V8.45455H71.2199ZM58.7067 19.4545V26H57.7191V19.4545H58.7067ZM65.4279 19.4545V26H64.5202L61.1932 21.1996H61.1325V26H60.1449V19.4545H61.0589L64.3892 24.2614H64.4499V19.4545H65.4279ZM66.5457 20.3047V19.4545H71.6114V20.3047H69.5692V26H68.5848V20.3047H66.5457ZM72.7308 26V19.4545H76.8345V20.3047H73.7184V22.299H76.6204V23.146H73.7184V25.1499H76.8729V26H72.7308ZM78.1537 26V19.4545H80.4868C80.9939 19.4545 81.4147 19.5419 81.7492 19.7166C82.0858 19.8913 82.3373 20.1332 82.5035 20.4421C82.6697 20.7489 82.7528 21.1037 82.7528 21.5064C82.7528 21.907 82.6686 22.2596 82.5003 22.5643C82.3341 22.8668 82.0827 23.1023 81.746 23.2706C81.4115 23.4389 80.9907 23.5231 80.4836 23.5231H78.7162V22.6729H80.3941C80.7137 22.6729 80.9736 22.6271 81.1739 22.5355C81.3763 22.4439 81.5244 22.3107 81.6182 22.136C81.7119 21.9613 81.7588 21.7514 81.7588 21.5064C81.7588 21.2592 81.7108 21.0451 81.615 20.864C81.5212 20.6829 81.3731 20.5444 81.1707 20.4485C80.9704 20.3505 80.7073 20.3015 80.3813 20.3015H79.1412V26H78.1537ZM81.3849 23.0469L83.002 26H81.877L80.2918 23.0469H81.3849ZM83.9545 26V19.4545H88.0582V20.3047H84.942V22.299H87.844V23.146H84.942V25.1499H88.0965V26H83.9545ZM85.61 18.7994L86.3579 17.326H87.3646L86.3738 18.7994H85.61ZM92.9473 21.174C92.9132 20.8714 92.7725 20.6371 92.5254 20.4709C92.2782 20.3026 91.9672 20.2184 91.5922 20.2184C91.3237 20.2184 91.0914 20.261 90.8954 20.3462C90.6994 20.4293 90.5471 20.5444 90.4384 20.6914C90.3319 20.8363 90.2786 21.0014 90.2786 21.1868C90.2786 21.3423 90.3148 21.4766 90.3873 21.5895C90.4618 21.7024 90.5588 21.7972 90.6781 21.8739C90.7995 21.9485 90.9295 22.0114 91.068 22.0625C91.2065 22.1115 91.3397 22.152 91.4675 22.1839L92.1067 22.3501C92.3155 22.4013 92.5297 22.4705 92.7491 22.5579C92.9686 22.6452 93.1721 22.7603 93.3596 22.9031C93.5471 23.0458 93.6983 23.2227 93.8134 23.4336C93.9306 23.6445 93.9892 23.897 93.9892 24.1911C93.9892 24.5618 93.8933 24.891 93.7015 25.1786C93.5119 25.4663 93.236 25.6932 92.8738 25.8594C92.5137 26.0256 92.0779 26.1087 91.5666 26.1087C91.0765 26.1087 90.6525 26.0309 90.2946 25.8754C89.9366 25.7198 89.6564 25.4993 89.454 25.2138C89.2516 24.9261 89.1397 24.5852 89.1184 24.1911H90.1092C90.1284 24.4276 90.2051 24.6246 90.3393 24.7823C90.4757 24.9379 90.6493 25.054 90.8603 25.1307C91.0733 25.2053 91.3066 25.2425 91.5602 25.2425C91.8393 25.2425 92.0875 25.1989 92.3049 25.1115C92.5243 25.022 92.6969 24.8984 92.8226 24.7408C92.9483 24.581 93.0112 24.3945 93.0112 24.1815C93.0112 23.9876 92.9558 23.8288 92.845 23.7053C92.7363 23.5817 92.5882 23.4794 92.4007 23.3984C92.2154 23.3175 92.0055 23.2461 91.7711 23.1843L90.9977 22.9734C90.4735 22.8306 90.0581 22.6207 89.7512 22.3438C89.4466 22.0668 89.2942 21.7003 89.2942 21.2443C89.2942 20.8672 89.3965 20.538 89.601 20.2567C89.8056 19.9755 90.0826 19.7571 90.432 19.6016C90.7814 19.4439 91.1756 19.3651 91.6145 19.3651C92.0577 19.3651 92.4487 19.4428 92.7875 19.5984C93.1284 19.7539 93.3968 19.968 93.5929 20.2408C93.7889 20.5114 93.8912 20.8224 93.8997 21.174H92.9473Z" fill="white"/>
<path d="M50.7227 15.8164C50.7227 16.6367 50.6608 17.4505 50.5371 18.2578C50.4199 19.0651 50.2116 19.8268 49.9121 20.543C49.6126 21.2526 49.1927 21.8841 48.6523 22.4375C48.112 22.9844 47.4251 23.4141 46.5918 23.7266C45.7585 24.0391 44.7493 24.1953 43.5645 24.1953C43.2845 24.1953 42.9557 24.1823 42.5781 24.1562C42.2005 24.1367 41.888 24.1042 41.6406 24.0586V21.6367C41.901 21.7018 42.1777 21.7539 42.4707 21.793C42.7637 21.8255 43.0599 21.8418 43.3594 21.8418C44.5508 21.8418 45.4688 21.653 46.1133 21.2754C46.7643 20.8978 47.2201 20.3737 47.4805 19.7031C47.7474 19.0326 47.9004 18.2578 47.9395 17.3789H47.8223C47.6335 17.6914 47.4089 17.9746 47.1484 18.2285C46.8945 18.4759 46.569 18.6745 46.1719 18.8242C45.7747 18.9674 45.2702 19.0391 44.6582 19.0391C43.8444 19.0391 43.1348 18.8633 42.5293 18.5117C41.9303 18.1536 41.4648 17.6393 41.1328 16.9688C40.8073 16.2917 40.6445 15.4746 40.6445 14.5176C40.6445 13.4824 40.8398 12.597 41.2305 11.8613C41.6276 11.1191 42.1908 10.5495 42.9199 10.1523C43.6491 9.75521 44.5085 9.55664 45.498 9.55664C46.2272 9.55664 46.9076 9.68359 47.5391 9.9375C48.1706 10.1849 48.724 10.5658 49.1992 11.0801C49.681 11.5944 50.0553 12.2454 50.3223 13.0332C50.5892 13.821 50.7227 14.7487 50.7227 15.8164ZM45.5566 11.9785C44.9707 11.9785 44.4922 12.1803 44.1211 12.584C43.75 12.9876 43.5645 13.6191 43.5645 14.4785C43.5645 15.1686 43.724 15.7155 44.043 16.1191C44.362 16.5228 44.847 16.7246 45.498 16.7246C45.9473 16.7246 46.3379 16.627 46.6699 16.4316C47.002 16.2298 47.2591 15.9792 47.4414 15.6797C47.6302 15.3737 47.7246 15.0612 47.7246 14.7422C47.7246 14.4102 47.679 14.0814 47.5879 13.7559C47.4967 13.4303 47.36 13.1341 47.1777 12.8672C46.9954 12.6003 46.7676 12.3854 46.4941 12.2227C46.2272 12.0599 45.9147 11.9785 45.5566 11.9785Z" fill="white"/>
<path d="M17.2496 9.10127C17.2232 9.10127 17.1968 9.07477 17.1836 9.06152C17.1836 9.06152 17.144 9.06152 17.1176 9.06152L13.6592 10.7575C13.6328 10.7575 13.6328 10.784 13.6592 10.784H20.6552C20.6816 10.784 20.6816 10.784 20.6552 10.7575L17.2496 9.08802V9.10127Z" fill="white"/>
<path d="M17.1572 4C10.4516 4 5 9.47225 5 16.2032C5 22.9342 10.4516 28.4065 17.1572 28.4065C23.8628 28.4065 29.3144 22.9342 29.3144 16.2032C29.3144 9.47225 23.8628 4 17.1572 4ZM24.008 23.292C24.008 23.292 23.9948 23.3317 23.9684 23.3317H10.346C10.346 23.3317 10.3064 23.3185 10.3064 23.292V21.914C10.3064 21.914 10.3196 21.8742 10.346 21.8742H23.9816C23.9816 21.8742 24.0212 21.8875 24.0212 21.914V23.292H24.008ZM14.8208 19.688V12.7582H16.3916V19.688H17.9228V12.7582H19.4804V19.688H21.038V12.7582H22.5956V19.688H23.282V21.0925C23.282 21.119 23.2688 21.1322 23.2424 21.1322H11.0324C11.0324 21.1322 10.9928 21.119 10.9928 21.0925V19.688H11.6792V12.7582H13.2368V19.688H14.7944H14.8208ZM24.4568 11.3007L24.0212 12.056C24.0212 12.0825 23.9684 12.0957 23.942 12.0957H10.3592C10.3328 12.0957 10.2932 12.0692 10.28 12.056L9.8444 11.3007C9.8444 11.2743 9.8444 11.2477 9.8708 11.2345L17.1044 7.3655C17.1308 7.3655 17.1704 7.3655 17.1968 7.3655L24.4436 11.2345C24.47 11.2345 24.47 11.2743 24.47 11.3007H24.4568Z" fill="white"/>
</svg>
