<svg width="110" height="32" viewBox="0 0 110 32" fill="none" xmlns="http://www.w3.org/2000/svg">
<path d="M94.1459 0H15.8541C7.09812 0 0 7.16344 0 16C0 24.8366 7.09812 32 15.8541 32H94.1459C102.902 32 110 24.8366 110 16C110 7.16344 102.902 0 94.1459 0Z" fill="#007391"/>
<path d="M67.2891 10.174C67.255 9.87145 67.1143 9.63707 66.8672 9.47088C66.62 9.30256 66.3089 9.21839 65.9339 9.21839C65.6655 9.21839 65.4332 9.26101 65.2372 9.34624C65.0412 9.42933 64.8888 9.54439 64.7802 9.69141C64.6737 9.83629 64.6204 10.0014 64.6204 10.1868C64.6204 10.3423 64.6566 10.4766 64.729 10.5895C64.8036 10.7024 64.9006 10.7972 65.0199 10.8739C65.1413 10.9485 65.2713 11.0114 65.4098 11.0625C65.5483 11.1115 65.6815 11.152 65.8093 11.1839L66.4485 11.3501C66.6573 11.4013 66.8714 11.4705 67.0909 11.5579C67.3104 11.6452 67.5138 11.7603 67.7013 11.9031C67.8888 12.0458 68.0401 12.2227 68.1552 12.4336C68.2724 12.6445 68.331 12.897 68.331 13.1911C68.331 13.5618 68.2351 13.891 68.0433 14.1786C67.8537 14.4663 67.5778 14.6932 67.2156 14.8594C66.8555 15.0256 66.4197 15.1087 65.9084 15.1087C65.4183 15.1087 64.9943 15.0309 64.6364 14.8754C64.2784 14.7198 63.9982 14.4993 63.7958 14.2138C63.5934 13.9261 63.4815 13.5852 63.4602 13.1911H64.451C64.4702 13.4276 64.5469 13.6246 64.6811 13.7823C64.8175 13.9379 64.9911 14.054 65.2021 14.1307C65.4151 14.2053 65.6484 14.2425 65.902 14.2425C66.1811 14.2425 66.4293 14.1989 66.6467 14.1115C66.8661 14.022 67.0387 13.8984 67.1644 13.7408C67.2901 13.581 67.353 13.3945 67.353 13.1815C67.353 12.9876 67.2976 12.8288 67.1868 12.7053C67.0781 12.5817 66.93 12.4794 66.7425 12.3984C66.5572 12.3175 66.3473 12.2461 66.1129 12.1843L65.3395 11.9734C64.8153 11.8306 64.3999 11.6207 64.093 11.3438C63.7884 11.0668 63.636 10.7003 63.636 10.2443C63.636 9.86719 63.7383 9.538 63.9428 9.25675C64.1474 8.9755 64.4244 8.7571 64.7738 8.60156C65.1232 8.44389 65.5174 8.36506 65.9563 8.36506C66.3995 8.36506 66.7905 8.44283 67.1293 8.59837C67.4702 8.75391 67.7386 8.96804 67.9347 9.24077C68.1307 9.51136 68.233 9.82244 68.2415 10.174H67.2891ZM70.4987 8.45455V15H69.5111V8.45455H70.4987ZM77.2199 8.45455V15H76.3122L72.9852 10.1996H72.9244V15H71.9369V8.45455H72.8509L76.1812 13.2614H76.2419V8.45455H77.2199ZM64.7067 19.4545V26H63.7191V19.4545H64.7067ZM71.4279 19.4545V26H70.5202L67.1932 21.1996H67.1325V26H66.1449V19.4545H67.0589L70.3892 24.2614H70.4499V19.4545H71.4279ZM72.5457 20.3047V19.4545H77.6114V20.3047H75.5692V26H74.5848V20.3047H72.5457ZM78.7308 26V19.4545H82.8345V20.3047H79.7184V22.299H82.6204V23.146H79.7184V25.1499H82.8729V26H78.7308ZM84.1537 26V19.4545H86.4868C86.9939 19.4545 87.4147 19.5419 87.7492 19.7166C88.0858 19.8913 88.3373 20.1332 88.5035 20.4421C88.6697 20.7489 88.7528 21.1037 88.7528 21.5064C88.7528 21.907 88.6686 22.2596 88.5003 22.5643C88.3341 22.8668 88.0827 23.1023 87.746 23.2706C87.4115 23.4389 86.9907 23.5231 86.4836 23.5231H84.7162V22.6729H86.3941C86.7137 22.6729 86.9736 22.6271 87.1739 22.5355C87.3763 22.4439 87.5244 22.3107 87.6182 22.136C87.7119 21.9613 87.7588 21.7514 87.7588 21.5064C87.7588 21.2592 87.7108 21.0451 87.615 20.864C87.5212 20.6829 87.3731 20.5444 87.1707 20.4485C86.9704 20.3505 86.7073 20.3015 86.3813 20.3015H85.1412V26H84.1537ZM87.3849 23.0469L89.002 26H87.877L86.2918 23.0469H87.3849ZM89.9545 26V19.4545H94.0582V20.3047H90.942V22.299H93.844V23.146H90.942V25.1499H94.0965V26H89.9545ZM91.61 18.7994L92.3579 17.326H93.3646L92.3738 18.7994H91.61ZM98.9473 21.174C98.9132 20.8714 98.7725 20.6371 98.5254 20.4709C98.2782 20.3026 97.9672 20.2184 97.5922 20.2184C97.3237 20.2184 97.0914 20.261 96.8954 20.3462C96.6994 20.4293 96.5471 20.5444 96.4384 20.6914C96.3319 20.8363 96.2786 21.0014 96.2786 21.1868C96.2786 21.3423 96.3148 21.4766 96.3873 21.5895C96.4618 21.7024 96.5588 21.7972 96.6781 21.8739C96.7995 21.9485 96.9295 22.0114 97.068 22.0625C97.2065 22.1115 97.3397 22.152 97.4675 22.1839L98.1067 22.3501C98.3155 22.4013 98.5297 22.4705 98.7491 22.5579C98.9686 22.6452 99.1721 22.7603 99.3596 22.9031C99.5471 23.0458 99.6983 23.2227 99.8134 23.4336C99.9306 23.6445 99.9892 23.897 99.9892 24.1911C99.9892 24.5618 99.8933 24.891 99.7015 25.1786C99.5119 25.4663 99.236 25.6932 98.8738 25.8594C98.5137 26.0256 98.0779 26.1087 97.5666 26.1087C97.0765 26.1087 96.6525 26.0309 96.2946 25.8754C95.9366 25.7198 95.6564 25.4993 95.454 25.2138C95.2516 24.9261 95.1397 24.5852 95.1184 24.1911H96.1092C96.1284 24.4276 96.2051 24.6246 96.3393 24.7823C96.4757 24.9379 96.6493 25.054 96.8603 25.1307C97.0733 25.2053 97.3066 25.2425 97.5602 25.2425C97.8393 25.2425 98.0875 25.1989 98.3049 25.1115C98.5243 25.022 98.6969 24.8984 98.8226 24.7408C98.9483 24.581 99.0112 24.3945 99.0112 24.1815C99.0112 23.9876 98.9558 23.8288 98.845 23.7053C98.7363 23.5817 98.5882 23.4794 98.4007 23.3984C98.2154 23.3175 98.0055 23.2461 97.7711 23.1843L96.9977 22.9734C96.4735 22.8306 96.0581 22.6207 95.7512 22.3438C95.4466 22.0668 95.2942 21.7003 95.2942 21.2443C95.2942 20.8672 95.3965 20.538 95.601 20.2567C95.8056 19.9755 96.0826 19.7571 96.432 19.6016C96.7814 19.4439 97.1756 19.3651 97.6145 19.3651C98.0577 19.3651 98.4487 19.4428 98.7875 19.5984C99.1284 19.7539 99.3968 19.968 99.5929 20.2408C99.7889 20.5114 99.8912 20.8224 99.8997 21.174H98.9473Z" fill="white"/>
<path d="M44.2617 24H41.2441V15.7383L41.2734 14.3809L41.3223 12.8965C40.821 13.3978 40.4727 13.7266 40.2773 13.8828L38.6367 15.2012L37.1816 13.3848L41.7812 9.72266H44.2617V24ZM58.207 24H48.2266V21.9004L51.8105 18.2773C52.8717 17.1901 53.5651 16.4382 53.8906 16.0215C54.2161 15.5983 54.4505 15.2077 54.5938 14.8496C54.737 14.4915 54.8086 14.1204 54.8086 13.7363C54.8086 13.1634 54.6491 12.737 54.3301 12.457C54.0176 12.1771 53.5977 12.0371 53.0703 12.0371C52.5169 12.0371 51.9798 12.1641 51.459 12.418C50.9382 12.6719 50.3945 13.0332 49.8281 13.502L48.1875 11.5586C48.8906 10.9596 49.4733 10.5365 49.9355 10.2891C50.3978 10.0417 50.9023 9.85286 51.4492 9.72266C51.9961 9.58594 52.6081 9.51758 53.2852 9.51758C54.1771 9.51758 54.9648 9.68034 55.6484 10.0059C56.332 10.3314 56.8626 10.7871 57.2402 11.373C57.6178 11.959 57.8066 12.6296 57.8066 13.3848C57.8066 14.0423 57.6895 14.6608 57.4551 15.2402C57.2272 15.8132 56.8691 16.4023 56.3809 17.0078C55.8991 17.6133 55.0462 18.4759 53.8223 19.5957L51.9863 21.3242V21.4609H58.207V24Z" fill="white"/>
<path d="M17.2496 9.10127C17.2232 9.10127 17.1968 9.07477 17.1836 9.06152C17.1836 9.06152 17.144 9.06152 17.1176 9.06152L13.6592 10.7575C13.6328 10.7575 13.6328 10.784 13.6592 10.784H20.6552C20.6816 10.784 20.6816 10.784 20.6552 10.7575L17.2496 9.08802V9.10127Z" fill="white"/>
<path d="M17.1572 4C10.4516 4 5 9.47225 5 16.2032C5 22.9342 10.4516 28.4065 17.1572 28.4065C23.8628 28.4065 29.3144 22.9342 29.3144 16.2032C29.3144 9.47225 23.8628 4 17.1572 4ZM24.008 23.292C24.008 23.292 23.9948 23.3317 23.9684 23.3317H10.346C10.346 23.3317 10.3064 23.3185 10.3064 23.292V21.914C10.3064 21.914 10.3196 21.8742 10.346 21.8742H23.9816C23.9816 21.8742 24.0212 21.8875 24.0212 21.914V23.292H24.008ZM14.8208 19.688V12.7582H16.3916V19.688H17.9228V12.7582H19.4804V19.688H21.038V12.7582H22.5956V19.688H23.282V21.0925C23.282 21.119 23.2688 21.1322 23.2424 21.1322H11.0324C11.0324 21.1322 10.9928 21.119 10.9928 21.0925V19.688H11.6792V12.7582H13.2368V19.688H14.7944H14.8208ZM24.4568 11.3007L24.0212 12.056C24.0212 12.0825 23.9684 12.0957 23.942 12.0957H10.3592C10.3328 12.0957 10.2932 12.0692 10.28 12.056L9.8444 11.3007C9.8444 11.2743 9.8444 11.2477 9.8708 11.2345L17.1044 7.3655C17.1308 7.3655 17.1704 7.3655 17.1968 7.3655L24.4436 11.2345C24.47 11.2345 24.47 11.2743 24.47 11.3007H24.4568Z" fill="white"/>
</svg>
