<svg width="110" height="32" viewBox="0 0 110 32" fill="none" xmlns="http://www.w3.org/2000/svg">
<g clip-path="url(#clip0_570_2922)">
<path d="M94.1583 0H15.8417C7.09257 0 0 7.16344 0 16C0 24.8366 7.09257 32 15.8417 32H94.1583C102.907 32 110 24.8366 110 16C110 7.16344 102.907 0 94.1583 0Z" fill="#478438"/>
</g>
<path d="M44.291 13.992C44.129 14.166 43.958 14.322 43.778 14.46C43.604 14.592 43.415 14.709 43.211 14.811C43.007 14.907 42.782 14.979 42.536 15.027C42.296 15.081 42.029 15.108 41.735 15.108C41.273 15.108 40.847 15.024 40.457 14.856C40.067 14.688 39.728 14.46 39.44 14.172C39.158 13.878 38.936 13.533 38.774 13.137C38.612 12.741 38.531 12.315 38.531 11.859C38.531 11.409 38.609 10.986 38.765 10.59C38.927 10.194 39.152 9.849 39.44 9.555C39.728 9.255 40.07 9.021 40.466 8.853C40.862 8.679 41.3 8.592 41.78 8.592C42.068 8.592 42.329 8.616 42.563 8.664C42.803 8.712 43.022 8.781 43.22 8.871C43.418 8.955 43.601 9.057 43.769 9.177C43.937 9.297 44.096 9.429 44.246 9.573L43.535 10.392C43.283 10.158 43.016 9.969 42.734 9.825C42.452 9.681 42.131 9.609 41.771 9.609C41.471 9.609 41.192 9.669 40.934 9.789C40.682 9.903 40.463 10.062 40.277 10.266C40.091 10.464 39.947 10.698 39.845 10.968C39.743 11.238 39.692 11.529 39.692 11.841C39.692 12.153 39.743 12.447 39.845 12.723C39.947 12.993 40.091 13.23 40.277 13.434C40.463 13.638 40.682 13.8 40.934 13.92C41.192 14.034 41.471 14.091 41.771 14.091C42.155 14.091 42.485 14.019 42.761 13.875C43.037 13.725 43.31 13.524 43.58 13.272L44.291 13.992ZM50.7465 8.7V12.273C50.7465 12.741 50.6805 13.152 50.5485 13.506C50.4225 13.86 50.2425 14.157 50.0085 14.397C49.7745 14.631 49.4895 14.808 49.1535 14.928C48.8235 15.042 48.4515 15.099 48.0375 15.099C47.6295 15.099 47.2605 15.042 46.9305 14.928C46.6005 14.808 46.3185 14.631 46.0845 14.397C45.8505 14.163 45.6705 13.875 45.5445 13.533C45.4185 13.185 45.3555 12.783 45.3555 12.327V8.7H46.4625V12.282C46.4625 12.87 46.6035 13.317 46.8855 13.623C47.1675 13.929 47.5575 14.082 48.0555 14.082C48.5475 14.082 48.9345 13.935 49.2165 13.641C49.4985 13.347 49.6395 12.909 49.6395 12.327V8.7H50.7465ZM58.5751 11.841C58.5751 12.285 58.4941 12.705 58.3321 13.101C58.1701 13.497 57.9421 13.845 57.6481 14.145C57.3541 14.439 57.0061 14.673 56.6041 14.847C56.2021 15.021 55.7581 15.108 55.2721 15.108C54.7861 15.108 54.3421 15.024 53.9401 14.856C53.5381 14.682 53.1931 14.448 52.9051 14.154C52.6171 13.86 52.3921 13.515 52.2301 13.119C52.0681 12.723 51.9871 12.303 51.9871 11.859C51.9871 11.415 52.0681 10.995 52.2301 10.599C52.3921 10.203 52.6201 9.858 52.9141 9.564C53.2081 9.264 53.5561 9.027 53.9581 8.853C54.3601 8.679 54.8041 8.592 55.2901 8.592C55.7761 8.592 56.2201 8.679 56.6221 8.853C57.0241 9.021 57.3691 9.252 57.6571 9.546C57.9451 9.84 58.1701 10.185 58.3321 10.581C58.4941 10.977 58.5751 11.397 58.5751 11.841ZM57.4141 11.859C57.4141 11.553 57.3601 11.265 57.2521 10.995C57.1501 10.719 57.0031 10.479 56.8111 10.275C56.6251 10.071 56.4001 9.909 56.1361 9.789C55.8721 9.669 55.5841 9.609 55.2721 9.609C54.9601 9.609 54.6721 9.669 54.4081 9.789C54.1501 9.903 53.9281 10.062 53.7421 10.266C53.5561 10.464 53.4091 10.701 53.3011 10.977C53.1991 11.247 53.1481 11.535 53.1481 11.841C53.1481 12.147 53.1991 12.438 53.3011 12.714C53.4091 12.984 53.5561 13.221 53.7421 13.425C53.9341 13.629 54.1621 13.791 54.4261 13.911C54.6901 14.031 54.9781 14.091 55.2901 14.091C55.6021 14.091 55.8871 14.034 56.1451 13.92C56.4091 13.8 56.6341 13.641 56.8201 13.443C57.0061 13.239 57.1501 13.002 57.2521 12.732C57.3601 12.456 57.4141 12.165 57.4141 11.859ZM62.2338 9.726V15H61.1178V9.726H59.1198V8.7H64.2318V9.726H62.2338ZM67.8551 8.655L70.6271 15H69.4571L68.8181 13.479H65.8391L65.1911 15H64.0571L66.8291 8.655H67.8551ZM68.4131 12.498L67.3241 9.978L66.2441 12.498H68.4131ZM72.5468 10.347C72.5468 10.473 72.5678 10.581 72.6098 10.671C72.6518 10.761 72.7268 10.845 72.8348 10.923C72.9488 11.001 73.1018 11.073 73.2938 11.139C73.4918 11.205 73.7408 11.274 74.0408 11.346C74.3708 11.43 74.6618 11.523 74.9138 11.625C75.1718 11.727 75.3848 11.853 75.5528 12.003C75.7208 12.147 75.8468 12.318 75.9308 12.516C76.0208 12.708 76.0658 12.936 76.0658 13.2C76.0658 13.5 76.0088 13.767 75.8948 14.001C75.7868 14.235 75.6338 14.433 75.4358 14.595C75.2378 14.757 75.0008 14.88 74.7248 14.964C74.4488 15.048 74.1458 15.09 73.8158 15.09C73.3298 15.09 72.8648 15.009 72.4208 14.847C71.9768 14.679 71.5658 14.424 71.1878 14.082L71.8538 13.29C72.1598 13.554 72.4688 13.758 72.7808 13.902C73.0928 14.04 73.4468 14.109 73.8428 14.109C74.1848 14.109 74.4548 14.037 74.6528 13.893C74.8568 13.749 74.9588 13.554 74.9588 13.308C74.9588 13.194 74.9378 13.092 74.8958 13.002C74.8598 12.912 74.7878 12.831 74.6798 12.759C74.5778 12.681 74.4338 12.609 74.2478 12.543C74.0678 12.477 73.8308 12.408 73.5368 12.336C73.2008 12.258 72.9008 12.171 72.6368 12.075C72.3788 11.979 72.1598 11.859 71.9798 11.715C71.8058 11.571 71.6708 11.397 71.5748 11.193C71.4848 10.989 71.4398 10.74 71.4398 10.446C71.4398 10.17 71.4938 9.921 71.6018 9.699C71.7098 9.471 71.8568 9.276 72.0428 9.114C72.2348 8.952 72.4628 8.829 72.7268 8.745C72.9908 8.655 73.2788 8.61 73.5908 8.61C74.0528 8.61 74.4668 8.679 74.8328 8.817C75.2048 8.949 75.5528 9.144 75.8768 9.402L75.2828 10.239C74.9948 10.029 74.7098 9.87 74.4278 9.762C74.1458 9.648 73.8608 9.591 73.5728 9.591C73.2488 9.591 72.9968 9.666 72.8168 9.816C72.6368 9.96 72.5468 10.137 72.5468 10.347ZM39.746 19.347C39.746 19.473 39.767 19.581 39.809 19.671C39.851 19.761 39.926 19.845 40.034 19.923C40.148 20.001 40.301 20.073 40.493 20.139C40.691 20.205 40.94 20.274 41.24 20.346C41.57 20.43 41.861 20.523 42.113 20.625C42.371 20.727 42.584 20.853 42.752 21.003C42.92 21.147 43.046 21.318 43.13 21.516C43.22 21.708 43.265 21.936 43.265 22.2C43.265 22.5 43.208 22.767 43.094 23.001C42.986 23.235 42.833 23.433 42.635 23.595C42.437 23.757 42.2 23.88 41.924 23.964C41.648 24.048 41.345 24.09 41.015 24.09C40.529 24.09 40.064 24.009 39.62 23.847C39.176 23.679 38.765 23.424 38.387 23.082L39.053 22.29C39.359 22.554 39.668 22.758 39.98 22.902C40.292 23.04 40.646 23.109 41.042 23.109C41.384 23.109 41.654 23.037 41.852 22.893C42.056 22.749 42.158 22.554 42.158 22.308C42.158 22.194 42.137 22.092 42.095 22.002C42.059 21.912 41.987 21.831 41.879 21.759C41.777 21.681 41.633 21.609 41.447 21.543C41.267 21.477 41.03 21.408 40.736 21.336C40.4 21.258 40.1 21.171 39.836 21.075C39.578 20.979 39.359 20.859 39.179 20.715C39.005 20.571 38.87 20.397 38.774 20.193C38.684 19.989 38.639 19.74 38.639 19.446C38.639 19.17 38.693 18.921 38.801 18.699C38.909 18.471 39.056 18.276 39.242 18.114C39.434 17.952 39.662 17.829 39.926 17.745C40.19 17.655 40.478 17.61 40.79 17.61C41.252 17.61 41.666 17.679 42.032 17.817C42.404 17.949 42.752 18.144 43.076 18.402L42.482 19.239C42.194 19.029 41.909 18.87 41.627 18.762C41.345 18.648 41.06 18.591 40.772 18.591C40.448 18.591 40.196 18.666 40.016 18.816C39.836 18.96 39.746 19.137 39.746 19.347ZM44.6298 17.7H45.7368V24H44.6298V17.7ZM51.8243 22.056V17.7H52.9133V24H51.9863L48.5123 19.518V24H47.4233V17.7H48.4493L51.8243 22.056ZM57.2949 17.7H58.4019V24H57.2949V17.7ZM64.4893 22.056V17.7H65.5783V24H64.6513L61.1773 19.518V24H60.0883V17.7H61.1143L64.4893 22.056ZM69.8627 18.726V24H68.7467V18.726H66.7487V17.7H71.8607V18.726H69.8627ZM77.7056 17.7V18.69H74.1416V20.328H77.3006V21.318H74.1416V23.01H77.7506V24H73.0346V17.7H77.7056ZM84.4099 24H83.1049L81.5569 21.804H80.1709V24H79.0639V17.7H81.8719C82.2319 17.7 82.5559 17.748 82.8439 17.844C83.1379 17.934 83.3839 18.066 83.5819 18.24C83.7859 18.408 83.9419 18.618 84.0499 18.87C84.1579 19.116 84.2119 19.392 84.2119 19.698C84.2119 19.962 84.1729 20.199 84.0949 20.409C84.0229 20.613 83.9209 20.796 83.7889 20.958C83.6569 21.114 83.4979 21.249 83.3119 21.363C83.1319 21.471 82.9309 21.555 82.7089 21.615L84.4099 24ZM83.0869 19.761C83.0869 19.413 82.9729 19.152 82.7449 18.978C82.5169 18.798 82.1959 18.708 81.7819 18.708H80.1709V20.823H81.7909C82.1869 20.823 82.5019 20.727 82.7359 20.535C82.9699 20.343 83.0869 20.085 83.0869 19.761ZM90.2388 17.7V18.69H86.6748V20.328H89.8338V21.318H86.6748V23.01H90.2838V24H85.5678V17.7H90.2388ZM88.0968 17.178H87.2508L88.2048 15.702L89.1948 16.143L88.0968 17.178ZM92.5331 19.347C92.5331 19.473 92.5541 19.581 92.5961 19.671C92.6381 19.761 92.7131 19.845 92.8211 19.923C92.9351 20.001 93.0881 20.073 93.2801 20.139C93.4781 20.205 93.7271 20.274 94.0271 20.346C94.3571 20.43 94.6481 20.523 94.9001 20.625C95.1581 20.727 95.3711 20.853 95.5391 21.003C95.7071 21.147 95.8331 21.318 95.9171 21.516C96.0071 21.708 96.0521 21.936 96.0521 22.2C96.0521 22.5 95.9951 22.767 95.8811 23.001C95.7731 23.235 95.6201 23.433 95.4221 23.595C95.2241 23.757 94.9871 23.88 94.7111 23.964C94.4351 24.048 94.1321 24.09 93.8021 24.09C93.3161 24.09 92.8511 24.009 92.4071 23.847C91.9631 23.679 91.5521 23.424 91.1741 23.082L91.8401 22.29C92.1461 22.554 92.4551 22.758 92.7671 22.902C93.0791 23.04 93.4331 23.109 93.8291 23.109C94.1711 23.109 94.4411 23.037 94.6391 22.893C94.8431 22.749 94.9451 22.554 94.9451 22.308C94.9451 22.194 94.9241 22.092 94.8821 22.002C94.8461 21.912 94.7741 21.831 94.6661 21.759C94.5641 21.681 94.4201 21.609 94.2341 21.543C94.0541 21.477 93.8171 21.408 93.5231 21.336C93.1871 21.258 92.8871 21.171 92.6231 21.075C92.3651 20.979 92.1461 20.859 91.9661 20.715C91.7921 20.571 91.6571 20.397 91.5611 20.193C91.4711 19.989 91.4261 19.74 91.4261 19.446C91.4261 19.17 91.4801 18.921 91.5881 18.699C91.6961 18.471 91.8431 18.276 92.0291 18.114C92.2211 17.952 92.4491 17.829 92.7131 17.745C92.9771 17.655 93.2651 17.61 93.5771 17.61C94.0391 17.61 94.4531 17.679 94.8191 17.817C95.1911 17.949 95.5391 18.144 95.8631 18.402L95.2691 19.239C94.9811 19.029 94.6961 18.87 94.4141 18.762C94.1321 18.648 93.8471 18.591 93.5591 18.591C93.2351 18.591 92.9831 18.666 92.8031 18.816C92.6231 18.96 92.5331 19.137 92.5331 19.347Z" fill="white"/>
<path d="M17.9805 17.9355C17.9805 17.1152 18.0391 16.3047 18.1562 15.5039C18.2799 14.6966 18.4915 13.9382 18.791 13.2285C19.0905 12.5124 19.5104 11.8809 20.0508 11.334C20.5911 10.7806 21.278 10.3477 22.1113 10.0352C22.9447 9.71615 23.9538 9.55664 25.1387 9.55664C25.4186 9.55664 25.7441 9.56966 26.1152 9.5957C26.4928 9.61523 26.8053 9.65104 27.0527 9.70312V12.1152C26.7923 12.0566 26.5124 12.0111 26.2129 11.9785C25.9199 11.9395 25.627 11.9199 25.334 11.9199C24.1491 11.9199 23.2311 12.1087 22.5801 12.4863C21.9355 12.8639 21.4798 13.388 21.2129 14.0586C20.9525 14.7227 20.7995 15.4974 20.7539 16.3828H20.8809C21.0632 16.0638 21.291 15.7806 21.5645 15.5332C21.8444 15.2858 22.1829 15.0905 22.5801 14.9473C22.9772 14.7975 23.4427 14.7227 23.9766 14.7227C24.8099 14.7227 25.5326 14.9017 26.1445 15.2598C26.7565 15.6113 27.2285 16.1224 27.5605 16.793C27.8926 17.4635 28.0586 18.2806 28.0586 19.2441C28.0586 20.2728 27.86 21.1582 27.4629 21.9004C27.0658 22.6426 26.5026 23.2122 25.7734 23.6094C25.0508 24 24.1914 24.1953 23.1953 24.1953C22.4661 24.1953 21.7858 24.0716 21.1543 23.8242C20.5228 23.5703 19.9694 23.1862 19.4941 22.6719C19.0189 22.1576 18.6478 21.5098 18.3809 20.7285C18.1139 19.9408 17.9805 19.0098 17.9805 17.9355ZM23.1367 21.7832C23.7292 21.7832 24.2109 21.5814 24.582 21.1777C24.9531 20.7741 25.1387 20.1426 25.1387 19.2832C25.1387 18.5866 24.9759 18.0397 24.6504 17.6426C24.3314 17.2389 23.8464 17.0371 23.1953 17.0371C22.7526 17.0371 22.362 17.138 22.0234 17.3398C21.6914 17.5352 21.4342 17.7858 21.252 18.0918C21.0697 18.3913 20.9785 18.7005 20.9785 19.0195C20.9785 19.3516 21.0241 19.6803 21.1152 20.0059C21.2064 20.3314 21.3431 20.6276 21.5254 20.8945C21.7077 21.1615 21.9323 21.3763 22.1992 21.5391C22.4727 21.7018 22.7852 21.7832 23.1367 21.7832Z" fill="white"/>
<defs>
<clipPath id="clip0_570_2922">
<rect width="110" height="32" fill="white"/>
</clipPath>
</defs>
</svg>
